<svg width="22" height="22" viewBox="0 0 22 22" fill="none" xmlns="http://www.w3.org/2000/svg">
<path d="M16 1H6C3.239 1 1 3.239 1 6V16C1 18.761 3.239 21 6 21H16C18.761 21 21 18.761 21 16V6C21 3.239 18.761 1 16 1Z" stroke="#141414" stroke-width="2" stroke-linecap="round" stroke-linejoin="round"/>
<path d="M15 10.37C15.123 11.202 14.981 12.052 14.594 12.799C14.206 13.546 13.593 14.151 12.842 14.53C12.09 14.908 11.238 15.04 10.408 14.906C9.57698 14.772 8.80998 14.38 8.21498 13.785C7.61998 13.19 7.22798 12.423 7.09398 11.592C6.95998 10.762 7.09199 9.90998 7.46999 9.15798C7.84899 8.40698 8.45398 7.79399 9.20098 7.40599C9.94798 7.01899 10.798 6.87698 11.63 6.99998C12.479 7.12598 13.265 7.52199 13.872 8.12799C14.479 8.73499 14.874 9.52097 15 10.37Z" stroke="#141414" stroke-width="2" stroke-linecap="round" stroke-linejoin="round"/>
</svg>
