<svg width="23" height="22" viewBox="0 0 23 22" fill="none" xmlns="http://www.w3.org/2000/svg">
<path d="M20.7 0.437988C21.13 0.437988 21.511 0.583984 21.843 0.876984C22.175 1.16998 22.341 1.53098 22.341 1.96098V20.477C22.341 20.906 22.175 21.268 21.843 21.561C21.511 21.854 21.13 22 20.7 22H2.30203C1.87203 22 1.50103 21.854 1.18903 21.561C0.876026 21.268 0.720032 20.906 0.720032 20.477V1.96098C0.720032 1.53098 0.876026 1.16998 1.18903 0.876984C1.50103 0.583984 1.87203 0.437988 2.30203 0.437988H20.7ZM7.10703 18.836V8.52298H3.94302V18.836H7.10703ZM5.52502 7.11699C6.03302 7.11699 6.47202 6.93199 6.84302 6.56099C7.21402 6.18899 7.40002 5.74999 7.40002 5.24199C7.40002 4.73399 7.21402 4.29498 6.84302 3.92398C6.47202 3.55298 6.03302 3.36699 5.52502 3.36699C5.01702 3.36699 4.57702 3.55298 4.20602 3.92398C3.83502 4.29498 3.65002 4.73399 3.65002 5.24199C3.65002 5.78899 3.82503 6.23798 4.17703 6.58998C4.52903 6.94098 4.97802 7.11699 5.52502 7.11699ZM19.118 18.836V13.152C19.118 11.59 18.855 10.389 18.327 9.54898C17.8 8.70898 16.794 8.28899 15.31 8.28899C13.825 8.28899 12.81 8.83598 12.263 9.92998H12.204V8.52298H9.15802V18.836H12.322V13.738C12.322 11.98 12.966 11.102 14.255 11.102C14.763 11.102 15.144 11.268 15.398 11.6C15.652 11.932 15.798 12.244 15.837 12.537C15.876 12.83 15.896 13.25 15.896 13.797V18.836H19.118Z" fill="#141414"/>
</svg>
