<svg width="76" height="36" viewBox="0 0 76 36" fill="none" xmlns="http://www.w3.org/2000/svg">
<g clip-path="url(#clip0_3_11)">
<path d="M24.6667 18H51.3333" stroke="#141414" stroke-width="2" stroke-linecap="round" stroke-linejoin="round"/>
</g>
<path d="M47.6667 1H57.6667C59.8554 1 62.0227 1.4311 64.0448 2.26868C66.0669 3.10625 67.9042 4.33391 69.4518 5.88156C70.9995 7.4292 72.2271 9.26652 73.0647 11.2886C73.9023 13.3107 74.3334 15.478 74.3334 17.6667C74.3334 19.8554 73.9023 22.0227 73.0647 24.0448C72.2271 26.0669 70.9995 27.9041 69.4518 29.4517C67.9042 30.9994 66.0669 32.2271 64.0448 33.0647C62.0227 33.9023 59.8554 34.3334 57.6667 34.3334H47.6667M27.6667 34.3334H17.6667C15.478 34.3334 13.3107 33.9023 11.2886 33.0647C9.26651 32.2271 7.4292 30.9994 5.88155 29.4517C2.75595 26.3261 1 22.087 1 17.6667C1 13.2464 2.75595 9.00716 5.88155 5.88156C9.00716 2.75595 13.2464 1 17.6667 1H27.6667" stroke="#141414" stroke-width="2" stroke-linecap="round" stroke-linejoin="round"/>
<defs>
<clipPath id="clip0_3_11">
<rect width="30" height="2" fill="white" transform="translate(23 17)"/>
</clipPath>
</defs>
</svg>
