<svg width="24" height="19" viewBox="0 0 24 19" fill="none" xmlns="http://www.w3.org/2000/svg">
<path d="M23.086 2.22701C22.344 3.28101 21.562 4.102 20.742 4.688V5.27299C20.742 8.71099 19.521 11.816 17.08 14.59C14.639 17.363 11.367 18.75 7.26601 18.75C4.60901 18.75 2.188 18.047 0 16.641C0.234 16.68 0.605007 16.699 1.11301 16.699C3.30101 16.699 5.27301 16.016 7.03101 14.648C6.01601 14.609 5.09799 14.287 4.27699 13.682C3.45699 13.076 2.891 12.305 2.578 11.367C2.969 11.445 3.262 11.484 3.457 11.484C3.887 11.484 4.316 11.426 4.746 11.309C3.652 11.113 2.744 10.576 2.021 9.69701C1.299 8.81801 0.938004 7.81199 0.938004 6.67999V6.562C1.719 6.992 2.422 7.207 3.047 7.207C1.68 6.27 0.996002 4.94101 0.996002 3.22301C0.996002 2.32401 1.191 1.543 1.582 0.878998C4.121 3.965 7.383 5.60499 11.367 5.80099C11.289 5.33199 11.25 4.98 11.25 4.746C11.25 3.418 11.709 2.295 12.627 1.377C13.545 0.458999 14.668 0 15.996 0C17.402 0 18.555 0.487996 19.453 1.465C20.547 1.23 21.543 0.859005 22.441 0.352005C22.09 1.484 21.406 2.34399 20.391 2.92999C21.289 2.81199 22.188 2.57801 23.086 2.22701Z" fill="#141414"/>
</svg>
